<?xml version="1.0" encoding="UTF-8"?>
<svg version="1.1" xmlns="http://www.w3.org/2000/svg" width="24" height="58">
<path d="M0 0 C0.99 0.33 1.98 0.66 3 1 C1.40153531 5.24908336 -1.8130392 7.82225739 -5.125 10.75 C-5.68832031 11.25660156 -6.25164063 11.76320313 -6.83203125 12.28515625 C-8.21651531 13.52884532 -9.60761488 14.76516305 -11 16 C-9.95199219 16.38091797 -9.95199219 16.38091797 -8.8828125 16.76953125 C-7.97273437 17.11371094 -7.06265625 17.45789063 -6.125 17.8125 C-5.22007813 18.14894531 -4.31515625 18.48539063 -3.3828125 18.83203125 C-1 20 -1 20 1 23 C0.50390625 24.83203125 0.50390625 24.83203125 -0.4375 26.8125 C-2.01846238 30.66302171 -2.21695962 32.91449272 -1 37 C-0.4225 38.134375 0.155 39.26875 0.75 40.4375 C2.06015814 44.1714507 2.1458198 44.57319015 0.6875 47.9375 C0.130625 48.948125 -0.42625 49.95875 -1 51 C-2.485 50.505 -2.485 50.505 -4 50 C-3.731875 49.030625 -3.46375 48.06125 -3.1875 47.0625 C-2.60502195 43.38330318 -3.56600647 41.78114433 -5.625 38.75 C-7.4994296 35.77658976 -8.05762827 34.52407826 -7.66796875 30.98046875 C-6.90141157 28.25376537 -6.04735808 25.63068813 -5 23 C-5.77085938 22.79503906 -6.54171875 22.59007813 -7.3359375 22.37890625 C-8.33882812 22.10949219 -9.34171875 21.84007813 -10.375 21.5625 C-11.37273438 21.29566406 -12.37046875 21.02882813 -13.3984375 20.75390625 C-16 20 -16 20 -18 19 C-17.92182417 16.34202177 -17.51637002 14.56107071 -15.69140625 12.578125 C-13.83854914 10.98629395 -11.93959807 9.4851166 -10 8 C-9.19820312 7.37222656 -8.39640625 6.74445312 -7.5703125 6.09765625 C-5.99194303 4.86471269 -4.40891825 3.63769486 -2.8203125 2.41796875 C-1.08598707 1.12708642 -1.08598707 1.12708642 0 0 Z " fill="black" transform="translate(19,1)"/>
<path d="M0 0 C0.66 0 1.32 0 2 0 C1.88140625 0.68964844 1.7628125 1.37929688 1.640625 2.08984375 C0.7484461 8.59382796 1.22353388 12.16049763 4.2734375 17.91796875 C5.18064472 20.51765395 4.83798493 21.57211248 3.75 24.0625 C2.88375 25.5165625 2.88375 25.5165625 2 27 C1.01 26.67 0.02 26.34 -1 26 C-0.731875 25.030625 -0.46375 24.06125 -0.1875 23.0625 C0.39518193 19.37218114 -0.60592729 17.55744027 -2.5625 14.4375 C-5.05661367 10.37506555 -5.05661367 10.37506555 -4.5 6.6875 C-3.1367321 4.24497835 -1.8982195 2.05640446 0 0 Z " fill="black" transform="translate(16,25)"/>
<path d="M0 0 C0.99 0.33 1.98 0.66 3 1 C1.44997253 4.88397689 -1.00476621 7.02979619 -4.125 9.75 C-5.49011719 10.94882812 -5.49011719 10.94882812 -6.8828125 12.171875 C-7.58148438 12.77515625 -8.28015625 13.3784375 -9 14 C-9.33 13.01 -9.66 12.02 -10 11 C-6.7 7.37 -3.4 3.74 0 0 Z " fill="black" transform="translate(19,1)"/>
<path d="M0 0 C0.66 0 1.32 0 2 0 C3.39195915 4.17587745 1.82323219 6.13474776 0 10 C-0.99 9.67 -1.98 9.34 -3 9 C-2.5020163 5.26512223 -2.12508244 3.18762365 0 0 Z " fill="black" transform="translate(18,42)"/>
<path d="M0 0 C0.66 0 1.32 0 2 0 C1.75 2.375 1.75 2.375 1 5 C-1.0625 6.3125 -1.0625 6.3125 -3 7 C-2.38722388 4.03824877 -1.74627478 2.61941217 0 0 Z " fill="black" transform="translate(16,25)"/>
</svg>
